<?xml version="1.0" encoding="UTF-8"?>
<svg id="Layer_1" xmlns="http://www.w3.org/2000/svg" xmlns:xlink="http://www.w3.org/1999/xlink" viewBox="0 0 716.59 602.54">
  <defs>
    <style>
      .cls-1 {
        fill: url(#linear-gradient-2);
      }

      .cls-2 {
        fill: #fff;
      }

      .cls-3 {
        fill: url(#linear-gradient);
      }
    </style>
    <linearGradient id="linear-gradient" x1="134.11" y1="219.38" x2="716.59" y2="219.38" gradientUnits="userSpaceOnUse">
      <stop offset="0" stop-color="#cdbe91"/>
      <stop offset="1" stop-color="#795c28"/>
    </linearGradient>
    <linearGradient id="linear-gradient-2" x1="50.27" y1="434.81" x2="306.98" y2="434.81" gradientUnits="userSpaceOnUse">
      <stop offset="0" stop-color="#cdbe91"/>
      <stop offset="1" stop-color="#795c28"/>
    </linearGradient>
  </defs>
  <path class="cls-2" d="M334.36,435.39c0,92.32-74.85,167.15-167.17,167.15S.03,527.71.03,435.39C.03,354.4,57.64,286.86,134.11,271.52l-43.23,39.55c-21.32,19.52-43.93,44.65-24.4,65.97,19.52,21.32,52.64,22.78,73.95,3.25l121.66-82.52c21.51,14.85,39.36,34.62,51.94,57.67,12.75,23.36,20.08,50.09,20.32,78.51.01.48.01.96.01,1.44Z"/>
  <path class="cls-3" d="M716.59,122.34s-111.96,91.01-150.68,175.05c-28.97,62.88-133.27,106.52-133.27,106.52l-.02-.03-50.89,28.25c-15.17,8.46-32.73,8.56-47.38,1.82-9.75-4.47-18.21-11.98-23.83-22.06-10.28-18.46-8.21-40.46,3.51-56.45,4.32-5.89,9.94-10.97,16.74-14.76l49.73-27.61c.59-.39,56.46-37.39,32.68-72.19-18.12-26.53-64.31-1.92-64.31-1.92l-.02-.05-86.76,58.86c-26.96-18.62-59.65-29.53-94.9-29.53-11.33,0-22.39,1.13-33.08,3.28l175.37-160.45s45.76-45.87,165.16-56.59C543.21,48.31,601.61.18,601.61.18c0,0,27.15-5.59,71.06,45.52,43.91,51.1,43.92,76.64,43.92,76.64Z"/>
  <path class="cls-2" d="M20.81,354.57c44.58-80.84,146.26-110.22,227.1-65.64,80.83,44.58,110.24,146.25,65.66,227.09-39.11,70.92-122.17,102.24-196.54,78.75l56.95-13.76c28.1-6.8,60.03-17.88,53.22-45.99-6.8-28.1-35.09-45.37-63.19-38.56l-146.38,13.51C5.97,486.59-.11,460.66,0,434.4c.12-26.61,6.61-53.56,20.12-78.56.22-.43.45-.85.69-1.27Z"/>
  <path class="cls-1" d="M306.94,504.75c-1.64.14-3.28.25-4.92.44-2.34.26-4.67.58-7,.87-.29.04-.58.04-.87.06-2.86.2-5.72.37-8.57.61-3.42.29-6.84.65-10.26.99-4.99.49-9.98,1-14.97,1.49-3.51.34-7.02.66-10.52,1.01-5.15.5-10.31,1-15.45,1.54-2.43.25-4.85.6-7.27.88-.44.05-.89,0-1.45,0-.19-1.79-.34-3.46-.54-5.14-.25-2.05-.54-4.09-.81-6.13-.03-.21-.08-.41-.1-.62-.2-2.73-.35-5.46-.59-8.18-.31-3.54-.7-7.08-1.05-10.62-.32-3.25-.59-6.51-.95-9.77-.25-2.25-.6-4.48-.9-6.73-.03-.21-.04-.41-.05-.62-.18-2.77-.29-5.56-.57-8.32-.4-3.99-.96-7.96-1.38-11.95-.26-2.39-.37-4.8-.59-7.2-.18-1.98-.4-3.95-.64-6.28,10.62,8.7,20.95,17.16,31.4,25.72.28-.34.64-.58.69-.88.39-2.23.75-4.46,1.06-6.7.33-2.41.71-4.82.86-7.24.18-2.91.14-5.83.19-8.75.01-.75-.04-1.5-.03-2.25.07-3.2-.27-6.35-.95-9.48-.45-2.08-.62-4.23-1.12-6.3-.59-2.47-1.19-4.97-2.14-7.31-1.98-4.89-3.97-9.8-6.38-14.48-1.67-3.25-3.97-6.19-6.13-9.17-2.37-3.26-4.72-6.57-7.8-9.24-2.81-2.43-5.61-4.86-8.4-7.3-5.15-4.51-11.15-7.62-17.34-10.36-2.61-1.16-5.45-1.85-8.01-3.1-2.7-1.32-5.6-1.81-8.44-2.52-2.31-.57-4.71-.78-7.07-1.16-5.01-.79-10.07-1.18-15.13-.86-3.79.24-7.56.79-11.32,1.35-2.72.4-5.42.95-8.09,1.61-1.6.4-3.13,1.12-4.68,1.72-3.15,1.24-6.36,2.36-9.42,3.8-2.92,1.38-5.66,3.13-8.51,4.66-5.36,2.88-9.58,7.2-14.11,11.12-5.66,4.91-9.71,11.07-13.75,17.26-2.9,4.45-5.13,9.23-6.82,14.24-1.14,3.37-2.15,6.8-3,10.26-.69,2.82-1.21,5.71-1.51,8.6-.45,4.33-.75,8.68-.89,13.03-.08,2.61.15,5.24.46,7.84.37,3.06.87,6.12,1.51,9.14.46,2.15,1.15,4.26,1.88,6.34,1.3,3.7,2.61,7.4,4.1,11.02.95,2.31,2.07,4.59,3.4,6.7,1.91,3.04,3.98,6,6.16,8.86,2.07,2.72,4.25,5.36,6.58,7.86,1.88,2.01,4.02,3.79,6.12,5.57,2.26,1.91,4.48,3.91,6.95,5.51,4.77,3.09,9.63,6.05,15.03,8.02,2.41.88,4.71,2.05,7.14,2.88,2.2.76,4.5,1.2,6.74,1.84,4.12,1.17,8.55,1.13,12.4,3.41,2.58,1.53,4.31,3.68,5.5,6.32,1.36,3,1.85,6.06,1.09,9.4-.85,3.74-2.4,6.92-5.59,9.11-2.81,1.93-5.93,3.16-9.39,2.79-3.15-.33-6.29-.89-9.4-1.47-2.22-.41-4.43-.94-6.6-1.58-3.37-1.01-6.7-2.12-10.02-3.26-1.39-.48-2.76-1.04-4.07-1.7-4.48-2.27-9.01-4.46-13.38-6.94-3.38-1.91-6.69-4.01-9.78-6.37-5.48-4.18-10.93-8.45-15.47-13.7-3.33-3.85-6.66-7.71-9.73-11.77-2.22-2.93-4.01-6.19-5.96-9.32-.97-1.56-2.03-3.09-2.79-4.76-2.06-4.49-4.18-8.98-5.92-13.6-1.45-3.86-2.46-7.89-3.56-11.88-.62-2.25-.86-4.62-1.58-6.84-.8-2.47-.83-5.02-1.27-7.52-1.18-6.73-.95-13.5-.82-20.25.07-3.43.52-6.86,1.01-10.25.3-2.09,1.02-4.12,1.52-6.18.4-1.67.72-3.37,1.12-5.04.51-2.11.95-4.25,1.62-6.32,1.03-3.2,2.12-6.39,3.39-9.49,1.42-3.46,2.85-6.94,4.68-10.18,2.59-4.6,5.46-9.05,8.39-13.45,1.94-2.91,3.97-5.83,6.36-8.35,4.34-4.58,8.8-9.09,13.57-13.21,3.97-3.43,8.32-6.49,12.78-9.29,4.31-2.71,8.92-4.94,13.47-7.24,2.04-1.03,4.25-1.74,6.39-2.59,2.28-.9,4.53-1.91,6.86-2.67,2.57-.83,5.21-1.47,7.84-2.11,2.24-.55,4.49-1.03,6.75-1.45,1.5-.28,3.03-.4,4.54-.58,2.58-.31,5.17-.62,7.75-.93.37-.04.75-.05,1.12-.05,4.29,0,8.59-.11,12.88.03,2.64.09,5.27.54,7.9.83,1.77.2,3.54.33,5.29.63,2.18.38,4.35.88,6.51,1.36,1.52.34,3.04.68,4.53,1.12,3.06.89,6.22,1.57,9.13,2.82,5.77,2.47,11.46,5.16,17.08,7.96,3.08,1.54,6.1,3.28,8.86,5.32,5.51,4.06,11.07,8.08,15.91,12.97,1.26,1.27,2.43,2.62,3.59,3.98,2.6,3.02,5.31,5.96,7.71,9.13,2.32,3.07,4.24,6.43,6.44,9.59,3.12,4.49,5.33,9.45,7.42,14.46,1.44,3.46,2.75,6.99,3.85,10.57,1.18,3.83,1.94,7.79,3.08,11.63,1.02,3.43,1.31,6.94,1.77,10.45.72,5.46,1.06,10.92.85,16.41-.12,3.18-.55,6.35-.86,9.53-.18,1.85-.3,3.72-.61,5.55-.36,2.1-.89,4.18-1.39,6.26-.41,1.72-.83,3.43-1.32,5.12-.73,2.56-1.52,5.1-2.31,7.64-.36,1.18-.8,2.33-1.17,3.51-.29.92-.02,1.57.8,2.21,3.6,2.8,7.15,5.67,10.7,8.55,4.79,3.89,9.57,7.78,14.33,11.71,1.62,1.33,3.14,2.78,4.73,4.16.55.47,1.15.87,1.73,1.31-.01.11-.03.22-.04.34Z"/>
</svg>